<?xml version="1.0" encoding="UTF-8" standalone="no"?>
<!-- Created with Inkscape (http://www.inkscape.org/) -->

<svg
   xmlns:dc="http://purl.org/dc/elements/1.1/"
   xmlns:cc="http://creativecommons.org/ns#"
   xmlns:rdf="http://www.w3.org/1999/02/22-rdf-syntax-ns#"
   xmlns:svg="http://www.w3.org/2000/svg"
   xmlns="http://www.w3.org/2000/svg"
   xmlns:sodipodi="http://sodipodi.sourceforge.net/DTD/sodipodi-0.dtd"
   xmlns:inkscape="http://www.inkscape.org/namespaces/inkscape"
   width="84.638649mm"
   height="72.751472mm"
   viewBox="0 0 299.90072 257.78081"
   id="svg2"
   version="1.1"
   inkscape:version="0.91 r13725"
   sodipodi:docname="thunderstorm.svg">
  <defs
     id="defs4">
    <clipPath
       id="clipEmfPath1"
       clipPathUnits="userSpaceOnUse">
      <path
         inkscape:connector-curvature="0"
         id="path3341"
         d="m 10.0023,16.2537 873.9497,0 0,890.2033 -873.9497,0 z" />
    </clipPath>
    <pattern
       y="0"
       x="0"
       height="6"
       width="6"
       patternUnits="userSpaceOnUse"
       id="EMFhbasepattern" />
    <clipPath
       id="clipEmfPath1-8"
       clipPathUnits="userSpaceOnUse">
      <path
         inkscape:connector-curvature="0"
         id="path3413"
         d="m 10.0023,16.2537 873.9497,0 0,871.4493 -873.9497,0 z" />
    </clipPath>
    <pattern
       y="0"
       x="0"
       height="6"
       width="6"
       patternUnits="userSpaceOnUse"
       id="EMFhbasepattern-9" />
    <clipPath
       id="clipEmfPath1-5"
       clipPathUnits="userSpaceOnUse">
      <path
         inkscape:connector-curvature="0"
         id="path3485"
         d="m 10.0023,16.2537 1068.9977,0 0,920.2103 -1068.9977,0 z" />
    </clipPath>
    <pattern
       y="0"
       x="0"
       height="6"
       width="6"
       patternUnits="userSpaceOnUse"
       id="EMFhbasepattern-0" />
  </defs>
  <sodipodi:namedview
     id="base"
     pagecolor="#ffffff"
     bordercolor="#666666"
     borderopacity="1.0"
     inkscape:pageopacity="0.0"
     inkscape:pageshadow="2"
     inkscape:zoom="0.35"
     inkscape:cx="230.2758"
     inkscape:cy="85.239484"
     inkscape:document-units="px"
     inkscape:current-layer="layer1"
     showgrid="false"
     inkscape:window-width="1366"
     inkscape:window-height="706"
     inkscape:window-x="-8"
     inkscape:window-y="-8"
     inkscape:window-maximized="1"
     fit-margin-top="0"
     fit-margin-left="0"
     fit-margin-right="0"
     fit-margin-bottom="0" />
  <metadata
     id="metadata7">
    <rdf:RDF>
      <cc:Work
         rdf:about="">
        <dc:format>image/svg+xml</dc:format>
        <dc:type
           rdf:resource="http://purl.org/dc/dcmitype/StillImage" />
        <dc:title></dc:title>
      </cc:Work>
    </rdf:RDF>
  </metadata>
  <g
     inkscape:label="Layer 1"
     inkscape:groupmode="layer"
     id="layer1"
     transform="translate(-144.7242,-359.82089)">
    <path
       inkscape:connector-curvature="0"
       id="path3488"
       d="m 255.84976,428.55769 c -22.84758,3.04348 -39.71854,18.03992 -37.66763,33.49978 2.05091,15.48158 22.25209,25.56002 45.09967,22.51653 22.8696,-3.0432 39.71883,-18.03964 37.66764,-33.4995 -2.05091,-15.48158 -22.23008,-25.56002 -45.09968,-22.51681 z"
       style="fill:#a6a6a6;fill-opacity:1;fill-rule:evenodd;stroke:none" />
    <path
       inkscape:connector-curvature="0"
       id="path3490"
       d="m 255.84976,428.55769 c -22.84758,3.04348 -39.71854,18.03992 -37.66763,33.49978 2.05091,15.48158 22.25209,25.56002 45.09967,22.51653 22.8696,-3.0432 39.71883,-18.03964 37.66764,-33.4995 -2.05091,-15.48158 -22.23008,-25.56002 -45.09968,-22.51681"
       style="fill:none;stroke:#000000;stroke-width:0.94830716px;stroke-linecap:butt;stroke-linejoin:round;stroke-miterlimit:4;stroke-dasharray:none;stroke-opacity:1" />
    <path
       inkscape:connector-curvature="0"
       id="path3492"
       d="m 314.38011,418.83203 c -26.79502,3.55063 -46.7978,19.34125 -44.68057,35.26395 2.11723,15.90068 25.538,25.93509 52.33331,22.36244 26.79503,-3.55064 46.79781,-19.34125 44.68058,-35.24194 -2.11695,-15.92269 -25.53801,-25.93509 -52.33332,-22.38445 z"
       style="fill:#a6a6a6;fill-opacity:1;fill-rule:evenodd;stroke:none" />
    <path
       inkscape:connector-curvature="0"
       id="path3494"
       d="m 314.38011,418.83203 c -26.79502,3.55063 -46.7978,19.34125 -44.68057,35.26395 2.11723,15.90068 25.538,25.93509 52.33331,22.36244 26.79503,-3.55064 46.79781,-19.34125 44.68058,-35.24194 -2.11695,-15.92269 -25.53801,-25.93509 -52.33332,-22.38445"
       style="fill:none;stroke:#000000;stroke-width:0.94830716px;stroke-linecap:butt;stroke-linejoin:round;stroke-miterlimit:4;stroke-dasharray:none;stroke-opacity:1" />
    <path
       inkscape:connector-curvature="0"
       id="path3496"
       d="m 176.34635,397.5505 c -10.03441,17.81922 -5.07238,39.6302 11.049,48.69434 16.14311,9.08614 37.33659,2.00688 47.371,-15.81235 10.0347,-17.81951 5.07238,-39.60848 -11.04871,-48.69457 -16.1434,-9.08611 -37.33688,-2.00688 -47.37129,15.81258 z"
       style="fill:#a6a6a6;fill-opacity:1;fill-rule:evenodd;stroke:none" />
    <path
       inkscape:connector-curvature="0"
       id="path3498"
       d="m 176.34635,397.5505 c -10.03441,17.81922 -5.07238,39.6302 11.049,48.69434 16.14311,9.08614 37.33659,2.00688 47.371,-15.81235 10.0347,-17.81951 5.07238,-39.60848 -11.04871,-48.69457 -16.1434,-9.08611 -37.33688,-2.00688 -47.37129,15.81258"
       style="fill:none;stroke:#000000;stroke-width:0.94830716px;stroke-linecap:butt;stroke-linejoin:round;stroke-miterlimit:4;stroke-dasharray:none;stroke-opacity:1" />
    <path
       transform="matrix(0.28222222,0,0,0.28222222,140.6856,354.08263)"
       inkscape:connector-curvature="0"
       id="path3500"
       d="M 364.536,24.3806 C 292.411,36.5709 241.774,92.443 251.386,149.175 260.997,205.828 327.184,241.93 399.232,229.74 471.28,217.628 521.916,161.756 512.305,105.024 502.771,48.2923 436.584,12.1903 364.536,24.3806 Z"
       clip-path="url(#clipEmfPath1-5)"
       style="fill:#a6a6a6;fill-opacity:1;fill-rule:evenodd;stroke:none" />
    <path
       transform="matrix(0.28222222,0,0,0.28222222,140.6856,354.08263)"
       inkscape:connector-curvature="0"
       id="path3502"
       d="M 364.536,24.3806 C 292.411,36.5709 241.774,92.443 251.386,149.175 260.997,205.828 327.184,241.93 399.232,229.74 471.28,217.628 521.916,161.756 512.305,105.024 502.771,48.2923 436.584,12.1903 364.536,24.3806"
       clip-path="url(#clipEmfPath1-5)"
       style="fill:none;stroke:#000000;stroke-width:3.36014342px;stroke-linecap:butt;stroke-linejoin:round;stroke-miterlimit:4;stroke-dasharray:none;stroke-opacity:1" />
    <path
       inkscape:connector-curvature="0"
       id="path3504"
       d="m 353.83422,390.22852 c -19.51765,0 -35.35201,11.49012 -35.35201,25.69267 0,14.20255 15.83436,25.71439 35.35201,25.71439 19.51736,0 35.352,-11.51184 35.352,-25.71439 0,-14.20255 -15.83464,-25.69267 -35.352,-25.69267 z"
       style="fill:#a6a6a6;fill-opacity:1;fill-rule:evenodd;stroke:none" />
    <path
       inkscape:connector-curvature="0"
       id="path3506"
       d="m 353.83422,390.22852 c -19.51765,0 -35.35201,11.49012 -35.35201,25.69267 0,14.20255 15.83436,25.71439 35.35201,25.71439 19.51736,0 35.352,-11.51184 35.352,-25.71439 0,-14.20255 -15.83464,-25.69267 -35.352,-25.69267"
       style="fill:none;stroke:#000000;stroke-width:0.94830716px;stroke-linecap:butt;stroke-linejoin:round;stroke-miterlimit:4;stroke-dasharray:none;stroke-opacity:1" />
    <path
       inkscape:connector-curvature="0"
       id="path3508"
       d="m 317.37957,369.45403 c -29.33135,0 -53.08318,10.38728 -53.08318,23.22249 0,12.81317 23.75183,23.20036 53.08318,23.20036 29.30934,0 53.08318,-10.38719 53.08318,-23.20036 0,-12.83521 -23.77384,-23.22249 -53.08318,-23.22249 z"
       style="fill:#a6a6a6;fill-opacity:1;fill-rule:evenodd;stroke:none" />
    <path
       inkscape:connector-curvature="0"
       id="path3510"
       d="m 317.37957,369.45403 c -29.33135,0 -53.08318,10.38728 -53.08318,23.22249 0,12.81317 23.75183,23.20036 53.08318,23.20036 29.30934,0 53.08318,-10.38719 53.08318,-23.20036 0,-12.83521 -23.77384,-23.22249 -53.08318,-23.22249"
       style="fill:none;stroke:#000000;stroke-width:0.94830716px;stroke-linecap:butt;stroke-linejoin:round;stroke-miterlimit:4;stroke-dasharray:none;stroke-opacity:1" />
    <path
       inkscape:connector-curvature="0"
       id="path3512"
       d="m 171.1196,410.25332 c -16.27556,2.16126 -27.78756,16.80492 -25.6704,32.72762 2.11715,15.92269 17.04747,27.05975 33.32314,24.89849 16.29748,-2.16126 27.7876,-16.80493 25.67036,-32.72762 -2.11723,-15.9227 -17.02533,-27.05975 -33.3231,-24.89849 z"
       style="fill:#a6a6a6;fill-opacity:1;fill-rule:evenodd;stroke:none" />
    <path
       transform="matrix(0.28222222,0,0,0.28222222,140.6856,354.08263)"
       inkscape:connector-curvature="0"
       id="path3514"
       d="m 107.837,199.03 c -57.6693,7.658 -98.45986,59.545 -90.9581,115.964 7.5017,56.419 60.4044,95.881 118.0741,88.223 57.747,-7.658 98.46,-59.545 90.958,-115.964 -7.502,-56.419 -60.326,-95.881 -118.074,-88.223"
       clip-path="url(#clipEmfPath1-5)"
       style="fill:none;stroke:#000000;stroke-width:3.36014342px;stroke-linecap:butt;stroke-linejoin:round;stroke-miterlimit:4;stroke-dasharray:none;stroke-opacity:1" />
    <path
       inkscape:connector-curvature="0"
       id="path3516"
       d="m 201.5536,437.37939 c -18.08396,2.40369 -31.40428,14.33463 -29.77247,26.64065 1.63209,12.30602 17.62111,20.33355 35.70506,17.92958 18.08395,-2.38168 31.40428,-14.31262 29.77247,-26.61864 -1.63209,-12.32803 -17.62111,-20.35556 -35.70506,-17.95159 z"
       style="fill:#a6a6a6;fill-opacity:1;fill-rule:evenodd;stroke:none" />
    <path
       inkscape:connector-curvature="0"
       id="path3518"
       d="m 201.5536,437.37939 c -18.08396,2.40369 -31.40428,14.33463 -29.77247,26.64065 1.63209,12.30602 17.62111,20.33355 35.70506,17.92958 18.08395,-2.38168 31.40428,-14.31262 29.77247,-26.61864 -1.63209,-12.32803 -17.62111,-20.35556 -35.70506,-17.95159"
       style="fill:none;stroke:#000000;stroke-width:0.94830716px;stroke-linecap:butt;stroke-linejoin:round;stroke-miterlimit:4;stroke-dasharray:none;stroke-opacity:1" />
    <path
       inkscape:connector-curvature="0"
       id="path3520"
       d="m 253.75483,387.22935 c -53.767,10.85031 -93.86051,37.05013 -89.51592,58.50833 4.32251,21.48022 51.42918,30.08122 105.1959,19.20861 53.76672,-10.85031 93.86034,-37.05013 89.51581,-58.50833 -4.32251,-21.45821 -51.42907,-30.0591 -105.19579,-19.20861 z"
       style="fill:#a6a6a6;fill-opacity:1;fill-rule:evenodd;stroke:none" />
    <path
       inkscape:connector-curvature="0"
       id="path3522"
       d="m 301.61125,436.29876 c -13.36463,1.76417 -22.75953,14.0922 -20.97306,27.50086 1.78618,13.43068 14.07019,22.8696 27.41253,21.10543 13.36463,-1.78647 22.73751,-14.09249 20.95104,-27.52316 -1.76417,-13.40866 -14.04817,-22.8696 -27.39051,-21.08313 z"
       style="fill:#d9d9d9;fill-opacity:1;fill-rule:evenodd;stroke:none" />
    <path
       inkscape:connector-curvature="0"
       id="path3524"
       d="m 301.61125,436.29876 c -13.36463,1.76417 -22.75953,14.0922 -20.97306,27.50086 1.78618,13.43068 14.07019,22.8696 27.41253,21.10543 13.36463,-1.78647 22.73751,-14.09249 20.95104,-27.52316 -1.76417,-13.40866 -14.04817,-22.8696 -27.39051,-21.08313"
       style="fill:none;stroke:#000000;stroke-width:0.94830716px;stroke-linecap:butt;stroke-linejoin:round;stroke-miterlimit:4;stroke-dasharray:none;stroke-opacity:1" />
    <path
       inkscape:connector-curvature="0"
       id="path3526"
       d="m 346.90933,452.2875 c -19.16458,2.53633 -33.38915,14.5113 -31.75734,26.75128 1.63209,12.23969 18.48104,20.09083 37.64562,17.53249 19.16459,-2.53605 33.38915,-14.5113 31.77935,-26.751 -1.63209,-12.2397 -18.48104,-20.09084 -37.66763,-17.53277 z"
       style="fill:#d9d9d9;fill-opacity:1;fill-rule:evenodd;stroke:none" />
    <path
       inkscape:connector-curvature="0"
       id="path3528"
       d="m 346.90933,452.2875 c -19.16458,2.53633 -33.38915,14.5113 -31.75734,26.75128 1.63209,12.23969 18.48104,20.09083 37.64562,17.53249 19.16459,-2.53605 33.38915,-14.5113 31.77935,-26.751 -1.63209,-12.2397 -18.48104,-20.09084 -37.66763,-17.53277"
       style="fill:none;stroke:#000000;stroke-width:0.94830716px;stroke-linecap:butt;stroke-linejoin:round;stroke-miterlimit:4;stroke-dasharray:none;stroke-opacity:1" />
    <path
       inkscape:connector-curvature="0"
       id="path3530"
       d="m 394.92013,446.44324 c -16.38583,2.18327 -28.53747,12.37234 -27.14809,22.73751 1.36737,10.38719 15.76832,17.04736 32.13213,14.86408 16.38582,-2.18327 28.56061,-12.35004 27.16925,-22.73723 -1.36595,-10.38747 -15.76747,-17.02562 -32.15329,-14.86436 z"
       style="fill:#d9d9d9;fill-opacity:1;fill-rule:evenodd;stroke:none" />
    <path
       inkscape:connector-curvature="0"
       id="path3532"
       d="m 394.92013,446.44324 c -16.38583,2.18327 -28.53747,12.37234 -27.14809,22.73751 1.36737,10.38719 15.76832,17.04736 32.13213,14.86408 16.38582,-2.18327 28.56061,-12.35004 27.16925,-22.73723 -1.36595,-10.38747 -15.76747,-17.02562 -32.15329,-14.86436"
       style="fill:none;stroke:#000000;stroke-width:0.94830716px;stroke-linecap:butt;stroke-linejoin:round;stroke-miterlimit:4;stroke-dasharray:none;stroke-opacity:1" />
    <path
       inkscape:connector-curvature="0"
       id="path3534"
       d="m 398.62514,403.06371 c -18.17229,0 -32.90401,8.77739 -32.90401,19.58368 0,10.80629 14.73172,19.58368 32.90401,19.58368 18.17229,0 32.88199,-8.77739 32.88199,-19.58368 0,-10.80629 -14.7097,-19.58368 -32.88199,-19.58368 z"
       style="fill:#d9d9d9;fill-opacity:1;fill-rule:evenodd;stroke:none" />
    <path
       inkscape:connector-curvature="0"
       id="path3536"
       d="m 398.62514,403.06371 c -18.17229,0 -32.90401,8.77739 -32.90401,19.58368 0,10.80629 14.73172,19.58368 32.90401,19.58368 18.17229,0 32.88199,-8.77739 32.88199,-19.58368 0,-10.80629 -14.7097,-19.58368 -32.88199,-19.58368"
       style="fill:none;stroke:#000000;stroke-width:0.94830716px;stroke-linecap:butt;stroke-linejoin:round;stroke-miterlimit:4;stroke-dasharray:none;stroke-opacity:1" />
    <path
       transform="matrix(0.28222222,0,0,0.28222222,140.6856,354.08263)"
       inkscape:connector-curvature="0"
       id="path3538"
       d="m 957.172,211.064 c -57.982,7.658 -99.554,55.325 -92.756,106.43 6.799,51.106 59.311,86.27 117.371,78.534 58.063,-7.736 99.553,-55.403 92.753,-106.431 -6.72,-51.105 -59.31,-86.269 -117.368,-78.533 z"
       clip-path="url(#clipEmfPath1-5)"
       style="fill:#d9d9d9;fill-opacity:1;fill-rule:evenodd;stroke:none" />
    <path
       transform="matrix(0.28222222,0,0,0.28222222,140.6856,354.08263)"
       inkscape:connector-curvature="0"
       id="path3540"
       d="m 957.172,211.064 c -57.982,7.658 -99.554,55.325 -92.756,106.43 6.799,51.106 59.311,86.27 117.371,78.534 58.063,-7.736 99.553,-55.403 92.753,-106.431 -6.72,-51.105 -59.31,-86.269 -117.368,-78.533"
       clip-path="url(#clipEmfPath1-5)"
       style="fill:none;stroke:#000000;stroke-width:3.36014342px;stroke-linecap:butt;stroke-linejoin:round;stroke-miterlimit:4;stroke-dasharray:none;stroke-opacity:1" />
    <path
       inkscape:connector-curvature="0"
       id="path3542"
       d="m 339.71972,404.21066 c -16.38582,2.18327 -28.20642,14.82005 -26.44225,28.22871 1.78647,13.43067 16.51819,22.53883 32.90401,20.37757 16.36381,-2.18355 28.2067,-14.82005 26.42023,-28.25072 -1.78618,-13.40866 -16.49589,-22.53883 -32.88199,-20.35556 z"
       style="fill:#d9d9d9;fill-opacity:1;fill-rule:evenodd;stroke:none" />
    <path
       inkscape:connector-curvature="0"
       id="path3544"
       d="m 339.71972,404.21066 c -16.38582,2.18327 -28.20642,14.82005 -26.44225,28.22871 1.78647,13.43067 16.51819,22.53883 32.90401,20.37757 16.36381,-2.18355 28.2067,-14.82005 26.42023,-28.25072 -1.78618,-13.40866 -16.49589,-22.53883 -32.88199,-20.35556"
       style="fill:none;stroke:#000000;stroke-width:0.94830716px;stroke-linecap:butt;stroke-linejoin:round;stroke-miterlimit:4;stroke-dasharray:none;stroke-opacity:1" />
    <path
       inkscape:connector-curvature="0"
       id="path3546"
       d="m 312.06448,419.84662 c -15.34922,0 -27.76559,8.73336 -27.76559,19.51736 0,10.78427 12.41637,19.51764 27.76559,19.51764 15.32749,0 27.76559,-8.73337 27.76559,-19.51764 0,-10.784 -12.4381,-19.51736 -27.76559,-19.51736 z"
       style="fill:#d9d9d9;fill-opacity:1;fill-rule:evenodd;stroke:none" />
    <path
       inkscape:connector-curvature="0"
       id="path3548"
       d="m 312.06448,419.84662 c -15.34922,0 -27.76559,8.73336 -27.76559,19.51736 0,10.78427 12.41637,19.51764 27.76559,19.51764 15.32749,0 27.76559,-8.73337 27.76559,-19.51764 0,-10.784 -12.4381,-19.51736 -27.76559,-19.51736"
       style="fill:none;stroke:#000000;stroke-width:0.94830716px;stroke-linecap:butt;stroke-linejoin:round;stroke-miterlimit:4;stroke-dasharray:none;stroke-opacity:1" />
    <path
       inkscape:connector-curvature="0"
       id="path3550"
       d="m 356.96575,420.8169 c -39.2334,7.91746 -68.34434,27.65523 -65.01412,44.10738 3.30793,16.45214 37.8,23.37703 77.0334,15.45957 39.25542,-7.91718 68.36693,-27.67725 65.0367,-44.1294 -3.33022,-16.45186 -37.82257,-23.35473 -77.05598,-15.43755 z"
       style="fill:#d9d9d9;fill-opacity:1;fill-rule:evenodd;stroke:none" />
    <path
       inkscape:connector-curvature="0"
       id="path3552"
       d="m 318.76895,497.67391 -40.35834,20.28952 36.21221,23.44307 -12.284,6.90259 34.31568,21.85529 -10.54184,5.31481 55.22242,34.88888 -32.57324,-45.51878 8.64503,-4.54293 -26.3542,-27.1701 8.62302,-3.74904 z"
       style="fill:#ffc000;fill-opacity:1;fill-rule:evenodd;stroke:none" />
    <path
       inkscape:connector-curvature="0"
       id="path3554"
       d="m 365.52273,515.38307 c -2.73473,0 -4.94002,2.09522 -4.94002,4.6753 0,2.55834 2.20529,4.65328 4.94002,4.65328 2.73445,0 4.94002,-2.09494 4.94002,-4.65328 0,-2.58008 -2.20557,-4.6753 -4.94002,-4.6753 z"
       style="fill:#00b0f0;fill-opacity:1;fill-rule:evenodd;stroke:none" />
    <path
       inkscape:connector-curvature="0"
       id="path3556"
       d="m 365.61078,509.23006 -4.38855,8.62302 8.7551,0 z"
       style="fill:#00b0f0;fill-opacity:1;fill-rule:evenodd;stroke:none" />
    <path
       inkscape:connector-curvature="0"
       id="path3558"
       d="m 387.11301,537.54711 c -2.71243,0 -4.91772,2.07292 -4.91772,4.65328 0,2.55806 2.20529,4.65328 4.91772,4.65328 2.73474,0 4.94002,-2.09522 4.94002,-4.65328 0,-2.58036 -2.20528,-4.65328 -4.94002,-4.65328 z"
       style="fill:#00b0f0;fill-opacity:1;fill-rule:evenodd;stroke:none" />
    <path
       inkscape:connector-curvature="0"
       id="path3560"
       d="m 387.20135,531.37209 -4.38856,8.64503 8.77711,0 z"
       style="fill:#00b0f0;fill-opacity:1;fill-rule:evenodd;stroke:none" />
    <path
       inkscape:connector-curvature="0"
       id="path3562"
       d="m 398.22805,510.31069 c -2.73445,0 -4.94001,2.09522 -4.94001,4.65328 0,2.58036 2.20556,4.65328 4.94001,4.65328 2.71272,0 4.91801,-2.07292 4.91801,-4.65328 0,-2.55806 -2.20529,-4.65328 -4.91801,-4.65328 z"
       style="fill:#00b0f0;fill-opacity:1;fill-rule:evenodd;stroke:none" />
    <path
       inkscape:connector-curvature="0"
       id="path3564"
       d="m 398.29438,504.13567 -4.38884,8.64503 8.77739,0 z"
       style="fill:#00b0f0;fill-opacity:1;fill-rule:evenodd;stroke:none" />
    <path
       inkscape:connector-curvature="0"
       id="path3566"
       d="m 417.43694,537.54711 c -2.73473,0 -4.94001,2.07292 -4.94001,4.65328 0,2.55806 2.20528,4.65328 4.94001,4.65328 2.73474,0 4.94002,-2.09522 4.94002,-4.65328 0,-2.58036 -2.20528,-4.65328 -4.94002,-4.65328 z"
       style="fill:#00b0f0;fill-opacity:1;fill-rule:evenodd;stroke:none" />
    <path
       inkscape:connector-curvature="0"
       id="path3568"
       d="m 417.525,531.37209 -4.38856,8.64503 8.75538,0 z"
       style="fill:#00b0f0;fill-opacity:1;fill-rule:evenodd;stroke:none" />
    <path
       inkscape:connector-curvature="0"
       id="path3570"
       d="m 421.208,491.27847 c -2.73445,0 -4.94002,2.09494 -4.94002,4.65328 0,2.58036 2.20557,4.65328 4.94002,4.65328 2.713,0 4.91716,-2.07292 4.91716,-4.65328 0,-2.55834 -2.20416,-4.65328 -4.91716,-4.65328 z"
       style="fill:#00b0f0;fill-opacity:1;fill-rule:evenodd;stroke:none" />
    <path
       inkscape:connector-curvature="0"
       id="path3572"
       d="m 421.27432,485.10345 -4.38884,8.64503 8.77683,0 z"
       style="fill:#00b0f0;fill-opacity:1;fill-rule:evenodd;stroke:none" />
    <path
       inkscape:connector-curvature="0"
       id="path3574"
       d="m 407.62295,562.75435 c -2.73445,0 -4.94002,2.09494 -4.94002,4.65328 0,2.58036 2.20557,4.65328 4.94002,4.65328 2.71272,0 4.94002,-2.07292 4.94002,-4.65328 0,-2.55834 -2.2273,-4.65328 -4.94002,-4.65328 z"
       style="fill:#00b0f0;fill-opacity:1;fill-rule:evenodd;stroke:none" />
    <path
       inkscape:connector-curvature="0"
       id="path3576"
       d="m 407.68927,556.57933 -4.38884,8.64503 8.7774,0 z"
       style="fill:#00b0f0;fill-opacity:1;fill-rule:evenodd;stroke:none" />
    <path
       inkscape:connector-curvature="0"
       id="path3578"
       d="m 377.01256,562.75435 c -2.71272,0 -4.918,2.09494 -4.918,4.65328 0,2.58036 2.20528,4.65328 4.918,4.65328 2.73474,0 4.94002,-2.07292 4.94002,-4.65328 0,-2.55834 -2.20528,-4.65328 -4.94002,-4.65328 z"
       style="fill:#00b0f0;fill-opacity:1;fill-rule:evenodd;stroke:none" />
    <path
       inkscape:connector-curvature="0"
       id="path3580"
       d="m 377.1009,556.57933 -4.38884,8.64503 8.77739,0 z"
       style="fill:#00b0f0;fill-opacity:1;fill-rule:evenodd;stroke:none" />
    <path
       inkscape:connector-curvature="0"
       id="path3582"
       d="m 396.99305,590.96105 c -2.73445,0 -4.94002,2.07293 -4.94002,4.65328 0,2.58008 2.20557,4.65328 4.94002,4.65328 2.73473,0 4.94002,-2.0732 4.94002,-4.65328 0,-2.58035 -2.20529,-4.65328 -4.94002,-4.65328 z"
       style="fill:#00b0f0;fill-opacity:1;fill-rule:evenodd;stroke:none" />
    <path
       inkscape:connector-curvature="0"
       id="path3584"
       d="m 397.05937,584.78603 -4.36654,8.64503 8.7551,0 z"
       style="fill:#00b0f0;fill-opacity:1;fill-rule:evenodd;stroke:none" />
    <path
       inkscape:connector-curvature="0"
       id="path3586"
       d="m 427.33871,578.23594 c -2.73473,0 -4.93973,2.09521 -4.93973,4.65328 0,2.58035 2.205,4.65328 4.93973,4.65328 2.71216,0 4.94171,-2.07293 4.94171,-4.65328 0,-2.55807 -2.22955,-4.65328 -4.94171,-4.65328 z"
       style="fill:#00b0f0;fill-opacity:1;fill-rule:evenodd;stroke:none" />
    <path
       inkscape:connector-curvature="0"
       id="path3588"
       d="m 427.40644,572.06091 -4.3688,8.64504 8.75736,0 z"
       style="fill:#00b0f0;fill-opacity:1;fill-rule:evenodd;stroke:none" />
    <path
       inkscape:connector-curvature="0"
       id="path3590"
       d="m 232.38468,514.50085 c -2.73473,0 -4.94002,2.0732 -4.94002,4.65328 0,2.55834 2.20529,4.65356 4.94002,4.65356 2.71272,0 4.94002,-2.09522 4.94002,-4.65356 0,-2.58008 -2.2273,-4.65328 -4.94002,-4.65328 z"
       style="fill:#00b0f0;fill-opacity:1;fill-rule:evenodd;stroke:none" />
    <path
       inkscape:connector-curvature="0"
       id="path3592"
       d="m 232.45072,508.32582 -4.36654,8.62302 8.75538,0 z"
       style="fill:#00b0f0;fill-opacity:1;fill-rule:evenodd;stroke:none" />
    <path
       inkscape:connector-curvature="0"
       id="path3594"
       d="m 253.97524,536.64287 c -2.71272,0 -4.94001,2.07292 -4.94001,4.65328 0,2.58036 2.22729,4.65328 4.94001,4.65328 2.73474,0 4.94002,-2.07292 4.94002,-4.65328 0,-2.58036 -2.20528,-4.65328 -4.94002,-4.65328 z"
       style="fill:#00b0f0;fill-opacity:1;fill-rule:evenodd;stroke:none" />
    <path
       inkscape:connector-curvature="0"
       id="path3596"
       d="m 254.06358,530.46785 -4.38884,8.64503 8.7774,0 z"
       style="fill:#00b0f0;fill-opacity:1;fill-rule:evenodd;stroke:none" />
    <path
       inkscape:connector-curvature="0"
       id="path3598"
       d="m 265.09028,509.40645 c -2.73473,0 -4.94001,2.09522 -4.94001,4.65328 0,2.58036 2.20528,4.67558 4.94001,4.67558 2.71272,0 4.91801,-2.09522 4.91801,-4.67558 0,-2.55806 -2.20529,-4.65328 -4.91801,-4.65328 z"
       style="fill:#00b0f0;fill-opacity:1;fill-rule:evenodd;stroke:none" />
    <path
       inkscape:connector-curvature="0"
       id="path3600"
       d="m 265.15632,503.25344 -4.38855,8.62302 8.77739,0 z"
       style="fill:#00b0f0;fill-opacity:1;fill-rule:evenodd;stroke:none" />
    <path
       inkscape:connector-curvature="0"
       id="path3602"
       d="m 284.29889,536.64287 c -2.73445,0 -4.94001,2.07292 -4.94001,4.65328 0,2.58036 2.20556,4.65328 4.94001,4.65328 2.73474,0 4.94002,-2.07292 4.94002,-4.65328 0,-2.58036 -2.20528,-4.65328 -4.94002,-4.65328 z"
       style="fill:#00b0f0;fill-opacity:1;fill-rule:evenodd;stroke:none" />
    <path
       inkscape:connector-curvature="0"
       id="path3604"
       d="m 284.36522,530.46785 -4.36655,8.64503 8.7551,0 z"
       style="fill:#00b0f0;fill-opacity:1;fill-rule:evenodd;stroke:none" />
    <path
       inkscape:connector-curvature="0"
       id="path3606"
       d="m 288.07023,490.37423 c -2.73473,0 -4.94002,2.09522 -4.94002,4.65328 0,2.58036 2.20529,4.6753 4.94002,4.6753 2.71244,0 4.918,-2.09494 4.918,-4.6753 0,-2.55806 -2.20556,-4.65328 -4.918,-4.65328 z"
       style="fill:#00b0f0;fill-opacity:1;fill-rule:evenodd;stroke:none" />
    <path
       inkscape:connector-curvature="0"
       id="path3608"
       d="m 288.13627,484.22122 -4.38856,8.62302 8.7774,0 z"
       style="fill:#00b0f0;fill-opacity:1;fill-rule:evenodd;stroke:none" />
    <path
       inkscape:connector-curvature="0"
       id="path3610"
       d="m 274.48518,561.85011 c -2.73473,0 -4.94002,2.09522 -4.94002,4.65328 0,2.58036 2.20529,4.65328 4.94002,4.65328 2.71244,0 4.94002,-2.07292 4.94002,-4.65328 0,-2.55806 -2.22758,-4.65328 -4.94002,-4.65328 z"
       style="fill:#00b0f0;fill-opacity:1;fill-rule:evenodd;stroke:none" />
    <path
       inkscape:connector-curvature="0"
       id="path3612"
       d="m 274.55122,555.67509 -4.38856,8.64503 8.7774,0 z"
       style="fill:#00b0f0;fill-opacity:1;fill-rule:evenodd;stroke:none" />
    <path
       inkscape:connector-curvature="0"
       id="path3614"
       d="m 243.87479,561.85011 c -2.71272,0 -4.918,2.09522 -4.918,4.65328 0,2.58036 2.20528,4.65328 4.918,4.65328 2.73445,0 4.94002,-2.07292 4.94002,-4.65328 0,-2.55806 -2.20557,-4.65328 -4.94002,-4.65328 z"
       style="fill:#00b0f0;fill-opacity:1;fill-rule:evenodd;stroke:none" />
    <path
       inkscape:connector-curvature="0"
       id="path3616"
       d="m 243.96285,555.67509 -4.38856,8.64503 8.77739,0 z"
       style="fill:#00b0f0;fill-opacity:1;fill-rule:evenodd;stroke:none" />
    <path
       inkscape:connector-curvature="0"
       id="path3618"
       d="m 263.85528,590.05681 c -2.73473,0 -4.94002,2.09494 -4.94002,4.65328 0,2.58036 2.20529,4.65328 4.94002,4.65328 2.71272,0 4.94002,-2.07292 4.94002,-4.65328 0,-2.55834 -2.2273,-4.65328 -4.94002,-4.65328 z"
       style="fill:#00b0f0;fill-opacity:1;fill-rule:evenodd;stroke:none" />
    <path
       inkscape:connector-curvature="0"
       id="path3620"
       d="m 263.92132,583.88179 -4.38856,8.64503 8.7774,0 z"
       style="fill:#00b0f0;fill-opacity:1;fill-rule:evenodd;stroke:none" />
    <path
       inkscape:connector-curvature="0"
       id="path3622"
       d="m 294.20122,577.3317 c -2.73473,0 -4.94001,2.09521 -4.94001,4.65328 0,2.58035 2.20528,4.65356 4.94001,4.65356 2.71244,0 4.94002,-2.07321 4.94002,-4.65356 0,-2.55807 -2.22758,-4.65328 -4.94002,-4.65328 z"
       style="fill:#00b0f0;fill-opacity:1;fill-rule:evenodd;stroke:none" />
    <path
       inkscape:connector-curvature="0"
       id="path3624"
       d="m 294.26726,571.15667 -4.38855,8.64504 8.77711,0 z"
       style="fill:#00b0f0;fill-opacity:1;fill-rule:evenodd;stroke:none" />
    <path
       inkscape:connector-curvature="0"
       id="path3626"
       d="m 309.90322,562.75435 c -2.71244,0 -4.918,2.09494 -4.918,4.65328 0,2.58036 2.20556,4.65328 4.918,4.65328 2.73474,0 4.94002,-2.07292 4.94002,-4.65328 0,-2.55834 -2.20528,-4.65328 -4.94002,-4.65328 z"
       style="fill:#00b0f0;fill-opacity:1;fill-rule:evenodd;stroke:none" />
    <path
       inkscape:connector-curvature="0"
       id="path3628"
       d="m 309.99156,556.57933 -4.38884,8.64503 8.77739,0 z"
       style="fill:#00b0f0;fill-opacity:1;fill-rule:evenodd;stroke:none" />
    <path
       inkscape:connector-curvature="0"
       id="path3630"
       d="m 354.4297,536.64287 c -2.71272,0 -4.918,2.07292 -4.918,4.65328 0,2.58036 2.20528,4.65328 4.918,4.65328 2.73446,0 4.94002,-2.07292 4.94002,-4.65328 0,-2.58036 -2.20556,-4.65328 -4.94002,-4.65328 z"
       style="fill:#00b0f0;fill-opacity:1;fill-rule:evenodd;stroke:none" />
    <path
       inkscape:connector-curvature="0"
       id="path3632"
       d="m 354.51776,530.46785 -4.38856,8.64503 8.7774,0 z"
       style="fill:#00b0f0;fill-opacity:1;fill-rule:evenodd;stroke:none" />
    <path
       inkscape:connector-curvature="0"
       id="path3634"
       d="m 340.69028,506.07651 c -2.73473,0 -4.94002,2.09494 -4.94002,4.65328 0,2.58036 2.20529,4.65328 4.94002,4.65328 2.73445,0 4.94002,-2.07292 4.94002,-4.65328 0,-2.55834 -2.20557,-4.65328 -4.94002,-4.65328 z"
       style="fill:#00b0f0;fill-opacity:1;fill-rule:evenodd;stroke:none" />
    <path
       inkscape:connector-curvature="0"
       id="path3636"
       d="m 340.77833,499.90149 -4.38855,8.64503 8.77739,0 z"
       style="fill:#00b0f0;fill-opacity:1;fill-rule:evenodd;stroke:none" />
    <path
       inkscape:connector-curvature="0"
       id="path3638"
       d="m 384.8637,493.92487 c -2.71272,0 -4.918,2.09522 -4.918,4.67529 0,2.55835 2.20528,4.65328 4.918,4.65328 2.73474,0 4.94002,-2.09493 4.94002,-4.65328 0,-2.58007 -2.20528,-4.67529 -4.94002,-4.67529 z"
       style="fill:#00b0f0;fill-opacity:1;fill-rule:evenodd;stroke:none" />
    <path
       inkscape:connector-curvature="0"
       id="path3640"
       d="m 384.95176,487.77186 -4.38856,8.62302 8.77739,0 z"
       style="fill:#00b0f0;fill-opacity:1;fill-rule:evenodd;stroke:none" />
    <path
       inkscape:connector-curvature="0"
       id="path3642"
       d="m 215.33733,492.46945 c -2.73473,0 -4.94002,2.07292 -4.94002,4.65328 0,2.55806 2.20529,4.65328 4.94002,4.65328 2.71244,0 4.94002,-2.09522 4.94002,-4.65328 0,-2.58036 -2.22758,-4.65328 -4.94002,-4.65328 z"
       style="fill:#00b0f0;fill-opacity:1;fill-rule:evenodd;stroke:none" />
    <path
       inkscape:connector-curvature="0"
       id="path3644"
       d="m 215.40337,486.29443 -4.36654,8.62273 8.75509,0 z"
       style="fill:#00b0f0;fill-opacity:1;fill-rule:evenodd;stroke:none" />
    <path
       inkscape:connector-curvature="0"
       id="path3646"
       d="m 184.74867,492.46945 c -2.73445,0 -4.94001,2.07292 -4.94001,4.65328 0,2.55806 2.20556,4.65328 4.94001,4.65328 2.71272,0 4.91801,-2.09522 4.91801,-4.65328 0,-2.58036 -2.20529,-4.65328 -4.91801,-4.65328 z"
       style="fill:#00b0f0;fill-opacity:1;fill-rule:evenodd;stroke:none" />
    <path
       inkscape:connector-curvature="0"
       id="path3648"
       d="m 184.815,486.29443 -4.38884,8.62273 8.77739,0 z"
       style="fill:#00b0f0;fill-opacity:1;fill-rule:evenodd;stroke:none" />
    <path
       inkscape:connector-curvature="0"
       id="path3650"
       d="m 204.70743,520.65385 c -2.73473,0 -4.94002,2.09522 -4.94002,4.65328 0,2.58036 2.20529,4.67558 4.94002,4.67558 2.73445,0 4.94002,-2.09522 4.94002,-4.67558 0,-2.55806 -2.20557,-4.65328 -4.94002,-4.65328 z"
       style="fill:#00b0f0;fill-opacity:1;fill-rule:evenodd;stroke:none" />
    <path
       inkscape:connector-curvature="0"
       id="path3652"
       d="m 204.77347,514.50085 -4.36654,8.62301 8.75538,0 z"
       style="fill:#00b0f0;fill-opacity:1;fill-rule:evenodd;stroke:none" />
    <path
       inkscape:connector-curvature="0"
       id="path3654"
       d="m 248.35168,496.08613 c -2.73473,0 -4.9403,2.09522 -4.9403,4.65328 0,2.58036 2.20557,4.67529 4.9403,4.67529 2.71244,0 4.94002,-2.09493 4.94002,-4.67529 0,-2.55806 -2.22758,-4.65328 -4.94002,-4.65328 z"
       style="fill:#00b0f0;fill-opacity:1;fill-rule:evenodd;stroke:none" />
    <path
       inkscape:connector-curvature="0"
       id="path3656"
       d="m 248.41772,489.93312 -4.36654,8.62302 8.7551,0 z"
       style="fill:#00b0f0;fill-opacity:1;fill-rule:evenodd;stroke:none" />
    <path
       inkscape:connector-curvature="0"
       id="path3658"
       d="m 211.1912,570.29674 c -2.73473,0 -4.94002,2.07293 -4.94002,4.65328 0,2.55807 2.20529,4.65328 4.94002,4.65328 2.71244,0 4.94002,-2.09521 4.94002,-4.65328 0,-2.58035 -2.22758,-4.65328 -4.94002,-4.65328 z"
       style="fill:#00b0f0;fill-opacity:1;fill-rule:evenodd;stroke:none" />
    <path
       inkscape:connector-curvature="0"
       id="path3660"
       d="m 211.25724,564.12172 -4.38855,8.62302 8.77739,0 z"
       style="fill:#00b0f0;fill-opacity:1;fill-rule:evenodd;stroke:none" />
    <path
       inkscape:connector-curvature="0"
       id="path3662"
       d="m 231.92155,588.49105 c -2.73473,0 -4.94001,2.07292 -4.94001,4.65328 0,2.58007 2.20528,4.65328 4.94001,4.65328 2.71272,0 4.91801,-2.07321 4.91801,-4.65328 0,-2.58036 -2.20529,-4.65328 -4.91801,-4.65328 z"
       style="fill:#00b0f0;fill-opacity:1;fill-rule:evenodd;stroke:none" />
    <path
       inkscape:connector-curvature="0"
       id="path3664"
       d="m 231.98759,582.31602 -4.38855,8.64503 8.77739,0 z"
       style="fill:#00b0f0;fill-opacity:1;fill-rule:evenodd;stroke:none" />
    <path
       inkscape:connector-curvature="0"
       id="path3666"
       d="m 183.51367,524.88832 c -2.73445,0 -4.94002,2.09493 -4.94002,4.65328 0,2.58007 2.20557,4.67529 4.94002,4.67529 2.71272,0 4.94002,-2.09522 4.94002,-4.67529 0,-2.55835 -2.2273,-4.65328 -4.94002,-4.65328 z"
       style="fill:#00b0f0;fill-opacity:1;fill-rule:evenodd;stroke:none" />
    <path
       inkscape:connector-curvature="0"
       id="path3668"
       d="m 183.57999,518.73531 -4.38884,8.62302 8.7774,0 z"
       style="fill:#00b0f0;fill-opacity:1;fill-rule:evenodd;stroke:none" />
    <path
       inkscape:connector-curvature="0"
       id="path3670"
       d="m 194.14357,548.26507 c -2.73445,0 -4.94002,2.07292 -4.94002,4.65328 0,2.55834 2.20557,4.65328 4.94002,4.65328 2.71272,0 4.94002,-2.09494 4.94002,-4.65328 0,-2.58036 -2.2273,-4.65328 -4.94002,-4.65328 z"
       style="fill:#00b0f0;fill-opacity:1;fill-rule:evenodd;stroke:none" />
    <path
       inkscape:connector-curvature="0"
       id="path3672"
       d="m 194.20989,542.09004 -4.38884,8.62302 8.7774,0 z"
       style="fill:#00b0f0;fill-opacity:1;fill-rule:evenodd;stroke:none" />
    <path
       inkscape:connector-curvature="0"
       id="path3674"
       d="m 163.53318,548.26507 c -2.71261,0 -4.91795,2.07292 -4.91795,4.65328 0,2.55834 2.20534,4.65328 4.91795,4.65328 2.73465,0 4.94002,-2.09494 4.94002,-4.65328 0,-2.58036 -2.20537,-4.65328 -4.94002,-4.65328 z"
       style="fill:#00b0f0;fill-opacity:1;fill-rule:evenodd;stroke:none" />
    <path
       inkscape:connector-curvature="0"
       id="path3676"
       d="m 163.6214,542.09004 -4.38866,8.62302 8.77733,0 z"
       style="fill:#00b0f0;fill-opacity:1;fill-rule:evenodd;stroke:none" />
    <path
       inkscape:connector-curvature="0"
       id="path3678"
       d="m 183.51367,576.44975 c -2.73445,0 -4.94002,2.09494 -4.94002,4.65328 0,2.58008 2.20557,4.6753 4.94002,4.6753 2.71272,0 4.94002,-2.09522 4.94002,-4.6753 0,-2.55834 -2.2273,-4.65328 -4.94002,-4.65328 z"
       style="fill:#00b0f0;fill-opacity:1;fill-rule:evenodd;stroke:none" />
    <path
       inkscape:connector-curvature="0"
       id="path3680"
       d="m 183.57999,570.29674 -4.38884,8.62302 8.7774,0 z"
       style="fill:#00b0f0;fill-opacity:1;fill-rule:evenodd;stroke:none" />
    <path
       inkscape:connector-curvature="0"
       id="path3682"
       d="m 225.19507,540.52427 c -2.71244,0 -4.91772,2.07293 -4.91772,4.65328 0,2.55835 2.20528,4.65328 4.91772,4.65328 2.73473,0 4.94002,-2.09493 4.94002,-4.65328 0,-2.58035 -2.20529,-4.65328 -4.94002,-4.65328 z"
       style="fill:#00b0f0;fill-opacity:1;fill-rule:evenodd;stroke:none" />
    <path
       inkscape:connector-curvature="0"
       id="path3684"
       d="m 225.2834,534.34925 -4.38855,8.62302 8.77711,0 z"
       style="fill:#00b0f0;fill-opacity:1;fill-rule:evenodd;stroke:none" />
    <path
       inkscape:connector-curvature="0"
       id="path3686"
       d="m 323.42223,592.81356 c -2.73473,0 -4.94002,2.09494 -4.94002,4.65328 0,2.58008 2.20529,4.65328 4.94002,4.65328 2.71244,0 4.91801,-2.0732 4.91801,-4.65328 0,-2.55834 -2.20557,-4.65328 -4.91801,-4.65328 z"
       style="fill:#00b0f0;fill-opacity:1;fill-rule:evenodd;stroke:none" />
    <path
       inkscape:connector-curvature="0"
       id="path3688"
       d="m 323.48827,586.63854 -4.38855,8.64503 8.77739,0 z"
       style="fill:#00b0f0;fill-opacity:1;fill-rule:evenodd;stroke:none" />
    <path
       inkscape:connector-curvature="0"
       id="path3690"
       d="m 299.14124,608.29514 c -2.73473,0 -4.94002,2.09494 -4.94002,4.65328 0,2.58036 2.20529,4.65328 4.94002,4.65328 2.71244,0 4.91772,-2.07292 4.91772,-4.65328 0,-2.55834 -2.20528,-4.65328 -4.91772,-4.65328 z"
       style="fill:#00b0f0;fill-opacity:1;fill-rule:evenodd;stroke:none" />
    <path
       inkscape:connector-curvature="0"
       id="path3692"
       d="m 299.20728,602.12012 -4.38855,8.64503 8.77711,0 z"
       style="fill:#00b0f0;fill-opacity:1;fill-rule:evenodd;stroke:none" />
    <path
       inkscape:connector-curvature="0"
       id="path3694"
       d="m 350.08518,606.44264 c -2.71272,0 -4.91801,2.07292 -4.91801,4.65328 0,2.58035 2.20529,4.65328 4.91801,4.65328 2.73445,0 4.94001,-2.07293 4.94001,-4.65328 0,-2.58036 -2.20556,-4.65328 -4.94001,-4.65328 z"
       style="fill:#00b0f0;fill-opacity:1;fill-rule:evenodd;stroke:none" />
    <path
       inkscape:connector-curvature="0"
       id="path3696"
       d="m 350.17323,600.26761 -4.38856,8.64504 8.7774,0 z"
       style="fill:#00b0f0;fill-opacity:1;fill-rule:evenodd;stroke:none" />
    <path
       inkscape:connector-curvature="0"
       id="path3698"
       d="m 163.07006,506.98075 c -2.73465,0 -4.94002,2.07292 -4.94002,4.65328 0,2.58008 2.20537,4.65328 4.94002,4.65328 2.73464,0 4.94001,-2.0732 4.94001,-4.65328 0,-2.58036 -2.20537,-4.65328 -4.94001,-4.65328 z"
       style="fill:#00b0f0;fill-opacity:1;fill-rule:evenodd;stroke:none" />
    <path
       inkscape:connector-curvature="0"
       id="path3700"
       d="m 163.15828,500.80573 -4.38867,8.64503 8.77734,0 z"
       style="fill:#00b0f0;fill-opacity:1;fill-rule:evenodd;stroke:none" />
  </g>
</svg>
